<svg id="Capa_1" data-name="Capa 1" xmlns="http://www.w3.org/2000/svg" viewBox="0 0 685.52 110.13"><defs><style>.cls-1{fill:#0b255a;fill-rule:evenodd;}</style></defs><title>LOGO BCH</title><path class="cls-1" d="M81.69,28.38h5.08c3.6,0,16,3.45,16,3.45h2.14a5.47,5.47,0,0,0,2.64-1,2.06,2.06,0,0,1,1.09.53l-21,14.89s-6.39,3.17-6.39,6.13V89.86L60.44,104.2c.26-2,2.9-3.8,2.9-6.61v-37c0-2.85,20-13.27,20-16.22S71.61,39,71.61,39c-3.75-.13-5.29-.13-9.09,0s-7.86,2.48-9.28,2.4c4.53-3,16.68-13,28.46-13m42.59.79c3.19,0,5.14,3.44,10.64,10.65,1.36,1.82,7.73,9.55,7.73,13.3V56c0,7.62-19.94,15.23-19.94,18.37,0,2.15,10.44,1.14,15.13,4.27,4.5,3,6.4,9.26,6.4,12.75v9.06c0,5.42-7.44,7.43-16.47,14.39-4,3-17.63,12.21-18.69,12.21,0,0-15.6-8.51-23.14-8.51H75.87c-4.26,0-14.64,3.75-15.43,3.75,0,0,15.7-15.45,31.65-15.45h10.64c2.21,0,9.77,3.08,11.7,3.73V43a2.19,2.19,0,0,0-2.11-1.87c-3,0-5,5.38-5,5.59V86.91c0,1.8-6.95,7.14-10.67,9.32-5.56,3.21-9.14,6.3-12.5,8v-.79s2.94-3.19,2.94-5V54.71c0-.52,4.67-6.38,17.54-13.83,7.48-4.3,15.07-11.71,19.69-11.71m-6.13,18.35s8.54,9.31,8.54,14.92c0,4.24-3.27,5.89-8.54,9Zm0,31.4c.83.21,5.61,3.05,5.61,5.06V114.6c-1.33.58-.29,0-1,0-1.68,0-4.56-1.32-4.56-2.94ZM321.44,67.51l18.9,9.29v41l-17.82,8.78-19.17-8.21V75.47Zm-87.3-1.25,11.48,11.45v35.15l5.32,5.32-8.8,8.49-9.34-8.77V85.18C232.67,85,227,79.4,225.92,79l-6.39,5.85V113.1l4.78,4.79-9.06,8.77-8.25-8V83.31A58.64,58.64,0,0,1,201.42,78l11.19-11.44L223.52,76.9Zm43.92,1.49,20.74,8.79c-1,1.2-7.28,5.83-9.54,6.38,0,0-17-6.61-17.29-6.65v34.58L286.22,118s8.21-2.84,10.21-2.84a6,6,0,0,0,1.06,0v.81l-16.25,10.62h-2.1l-20.51-9.28V77.06Zm-104.83-.93c12.93,6.48,18.63,7.24,18.63,10.09V111l8.24,8.26-7.71,7.43c-5.67-4.58-7.73-6.63-7.73-6.63l-14.17,7.09-19.37-8.87V95.8L170,86.48l10.38,4.28V81.43l-16.54-5.77-8.36,1-.4-1.39Zm142.49,8.66,12.38,5.86v36.43l-12.52-5.59ZM162.87,94.22,180.4,103v16.5l-17.54-8.16ZM405.28,42.77c.78,0,4.3,1.34,10.1,4.26,3.13,1.59,8.8,2.74,8.8,5.59v66l-17.57,8.25-19.42-9.33V75.78l18.62-8.27c.67.08,6.65,2.4,6.65,2.4V56.61L396.93,50c-2.55.16-5.53,2.59-8.57,3.12l.69-2.61s14-7.7,16.22-7.7m49.21,24.5,17.29,19.16L446.52,105v5c0,1.09,14.88,7.88,14.88,7.88s7.37-5.07,10.64-3.07c-.15.23-17.83,11.69-17.83,11.69l-18.87-8.22v-42Zm-55.05,8.24,12.74,5.84v36.46h-.24l-12.5-5.6Zm47.34.8,12.67,13.26-12.67,9.36Zm240,37,4.81,4.52L682,126.91l-9.05-9.06V56.65l13.83-13.56Zm-73.7-72V80l13.86-13.57,10.36,10.36v49l-13,12.76H624V83.43l-5.06-4.8-5.87,5v29l5,4.82v.23l-9.32,9.32L599.74,118V54.69l13.33-13Zm39.65,0H653l9,9v.29L652.72,60,643.4,50.7Zm65.46,26.45c.53,0,17.29,18.39,17.57,19.18l-25.26,17.81V112l14.31,6.48s7.51-1,10.17-3.31l3.8,1c-.31.51-17.58,11.06-20.59,11.06-.65,0-13.55-5-18.88-8.55V78c0-1.82,18.83-10.13,18.83-10.13M653,66.39h.25l8.27,8.26v37.76l5,4.8-9.58,9.3-9-9V79.7l-4.27-4Zm57.72,10.48,12.13,12.46-12,7.78ZM561.59,34.55h1.06c-.83,2.14-15.21,9.07-20.73,15.45-8.56,9.77-14.25,15.25-13.31,30.49.55,8.88,7.53,22,15.69,26.72,2.52,1.4,10.42,5.79,17.82,6.12,10.75.46,6.49-1.67,8-.83V48.09c0-.8-2-5-3.82-5-.48,0-1.28.94-1.28,1.57V89.11c0,1.65-1.56,4-9.06,9.06-7.68,5.07-10.06,6.81-10.92,6.65a13.83,13.83,0,0,1,1.88-2.7V55.84c0-4.58,6.67-7.25,12.5-11.73,9.61-7.33,14.8-9,14.92-9h2.39c6.33,0,10.38,7.71,11.17,8.53a7.54,7.54,0,0,1,2.38,1.29h3.74c1,0,3.71-1.58,5.31-1.29-4.29,3.72-18.05,12.48-18.34,12.48h-2.14c-1,0-2.5-1.51-4.27-2.37v58a3.9,3.9,0,0,0,1,0c2.63,0,12.31-7,12.79-7.74h.8v1.87l-4,7.45c-8.33,9.47-17.61,14.17-30.91,14.27-23.22.19-39.7-16.68-41.45-42.73S529.43,37.52,551,36.15c3.11-.22,7,0,7.42,0,0,0,3-1.42,3.19-1.61" transform="translate(-53.24 -28.38)"/></svg>