<svg id="Capa_1" data-name="Capa 1" xmlns="http://www.w3.org/2000/svg" viewBox="0 0 308.59 366.91"><defs><style>.cls-1,.cls-2{fill:#fff;}.cls-2{fill-rule:evenodd;}</style></defs><title>LOGO CDN - blanco</title><path class="cls-1" d="M236.66,400.85,82.91,302.29V121.62L236.74,33.94,391.5,129.39V305.1l-1.24.77ZM88.15,299.43l148.55,95.23,149.56-92.48V132.31L236.63,40,88.15,124.66Z" transform="translate(-82.91 -33.94)"/><path class="cls-2" d="M246.57,311v12.5c-.54.24-.11,0-.43,0-.68,0-1.85-.54-1.85-1.2V308.93C244.63,309,246.57,310.18,246.57,311Z" transform="translate(-82.91 -33.94)"/><path class="cls-2" d="M244.29,305.89v-9.78s3.47,3.8,3.47,6.09C247.76,303.93,246.43,304.61,244.29,305.89Z" transform="translate(-82.91 -33.94)"/><path class="cls-2" d="M237.21,271.24a36.71,36.71,0,1,0,36.71,36.71A36.71,36.71,0,0,0,237.21,271.24ZM229.4,288.3h2.07a46.35,46.35,0,0,1,6.51,1.41h.87a2.32,2.32,0,0,0,1.09-.43,1,1,0,0,1,.44.21l-8.58,6.08s-2.6,1.3-2.6,2.5v15.32l-8.47,5.86c.12-.81,1.18-1.55,1.18-2.71v-15.1c0-1.16,8.15-5.42,8.15-6.63s-4.78-2.16-4.78-2.16c-1.52,0-2.15,0-3.7,0s-3.21,1-3.79,1C219.64,292.39,224.6,288.3,229.4,288.3Zm25.53,29.43c0,2.22-3,3-6.72,5.87-1.64,1.23-7.2,5-7.62,5,0,0-6.38-3.46-9.45-3.46H227c-1.74,0-6,1.52-6.29,1.52,0,0,6.4-6.31,12.91-6.31H238c.91,0,4,1.26,4.78,1.53V294.27a.89.89,0,0,0-.86-.76c-1.2,0-2.05,2.2-2.05,2.29v16.39c0,.73-2.85,2.92-4.36,3.8-2.27,1.32-3.74,2.57-5.11,3.26v-.33s1.21-1.3,1.21-2.05V299.06c0-.22,1.91-2.62,7.16-5.66,3-1.75,6.15-4.78,8-4.78,1.31,0,2.08,1.41,4.35,4.35.54.74,3.14,3.9,3.14,5.43v1.19c0,3.1-8.14,6.22-8.14,7.49,0,.88,4.27.47,6.18,1.74a6.86,6.86,0,0,1,2.61,5.22Z" transform="translate(-82.91 -33.94)"/><path class="cls-1" d="M141.24,148.57l-1.74,2.71a16.39,16.39,0,0,0-9.16-2.83c-10.44,0-13,9-13,17.79,0,9,2.58,18.11,13,18.11a15.19,15.19,0,0,0,9.86-3.8l1.88,2.52a17.24,17.24,0,0,1-11.8,4.51c-11.61,0-16.57-9.22-16.57-21.34s5-21.08,16.57-21.08A17.23,17.23,0,0,1,141.24,148.57Z" transform="translate(-82.91 -33.94)"/><path class="cls-1" d="M150,171.91c.32,8.38,4,12.7,10.06,12.7a14.71,14.71,0,0,0,9.41-3.16l1.16,2.64a16.51,16.51,0,0,1-10.57,3.48c-9.16,0-13.67-6.51-13.67-16.57,0-9.67,4.9-16.18,13.16-16.18s12.12,5.55,12.12,12.7a17.65,17.65,0,0,1-.52,4.38Zm17.92-3a9.53,9.53,0,0,0,.13-1.68c0-5.54-2.83-9.48-8.51-9.48-5.42,0-9,4.26-9.48,11.15Z" transform="translate(-82.91 -33.94)"/><path class="cls-1" d="M204.62,167.4V187H201V168.82c0-7-2.19-10.9-7.09-10.9-5.41,0-9.79,6-9.79,13.22V187H180.5v-28.3l-3.54-.39v-2.9h6.38l.52,7.35c1.8-4.45,5.09-7.93,10.57-7.93C200.88,154.82,204.62,159,204.62,167.4Z" transform="translate(-82.91 -33.94)"/><path class="cls-1" d="M227.38,158.24h-8v21.67c0,3.48,1.54,4.38,4.12,4.38a19.63,19.63,0,0,0,3.87-.39v2.84a15.09,15.09,0,0,1-4.51.58c-4.9,0-7.09-2.26-7.09-7.29V158.24h-5.54v-2.84h5.54v-7.55h3.61v7.55h8Z" transform="translate(-82.91 -33.94)"/><path class="cls-1" d="M250,155.15v3.35a12.86,12.86,0,0,0-1.74-.13c-6.51,0-10.12,7.61-10.12,13.15V187h-3.61V158.76l-3.61-.45v-2.9h6.64l.52,9.16c1.16-4.77,4.51-9.61,9.93-9.61A7.65,7.65,0,0,1,250,155.15Z" transform="translate(-82.91 -33.94)"/><path class="cls-1" d="M279.66,171.2c0,8.13-3.61,16.38-13.28,16.38s-13.28-8.25-13.28-16.38,3.61-16.38,13.28-16.38S279.66,163.08,279.66,171.2Zm-23,0c0,7.74,3.23,13.42,9.67,13.42s9.67-5.68,9.67-13.42-3.22-13.41-9.67-13.41S256.71,163.46,256.71,171.2Z" transform="translate(-82.91 -33.94)"/><path class="cls-1" d="M325.5,187l-.64-6.32c-1.68,3.81-4.77,6.9-10.19,6.9-9.15,0-13.15-7.87-13.15-16.25s4.06-16.51,12.7-16.51a11,11,0,0,1,10.32,6.45V140.58h3.61V187Zm-.77-15.8c0-7.86-3.42-13.41-10.12-13.41-5.93,0-9.48,5.42-9.48,13.54s3.68,13.28,9.61,13.28C321.44,184.61,324.73,179.07,324.73,171.2Z" transform="translate(-82.91 -33.94)"/><path class="cls-1" d="M339.82,171.91c.32,8.38,4,12.7,10.05,12.7a14.74,14.74,0,0,0,9.42-3.16l1.16,2.64a16.51,16.51,0,0,1-10.57,3.48c-9.15,0-13.66-6.51-13.66-16.57,0-9.67,4.9-16.18,13.15-16.18s12.12,5.55,12.12,12.7a17.56,17.56,0,0,1-.52,4.38Zm17.92-3a9.77,9.77,0,0,0,.13-1.68c0-5.54-2.84-9.48-8.51-9.48-5.42,0-9,4.26-9.48,11.15Z" transform="translate(-82.91 -33.94)"/><path class="cls-1" d="M127.67,197.77h-.25v37.85h-3.87v-41.2h6.32l19,37.91h.26V194.42h3.87v41.26h-6.32Z" transform="translate(-82.91 -33.94)"/><path class="cls-1" d="M165.13,220.6c.32,8.38,4,12.7,10.05,12.7a14.74,14.74,0,0,0,9.42-3.16l1.16,2.64a16.5,16.5,0,0,1-10.57,3.48c-9.15,0-13.67-6.51-13.67-16.57,0-9.67,4.9-16.18,13.15-16.18s12.12,5.54,12.12,12.7a17.68,17.68,0,0,1-.52,4.38Zm17.92-3a10.38,10.38,0,0,0,.13-1.67c0-5.54-2.83-9.48-8.51-9.48-5.42,0-9,4.25-9.48,11.15Z" transform="translate(-82.91 -33.94)"/><path class="cls-1" d="M207.1,232.08c8.58,0,13.28,2.64,13.28,8.64,0,5.22-3.87,9.74-14.57,9.74-10.44,0-14.57-3.81-14.57-9.09s5-7.35,6.45-7.61v-.26a4.64,4.64,0,0,1-3.35-4.64,6.38,6.38,0,0,1,4.13-5.93,9.79,9.79,0,0,1-4.9-9c0-6.38,4.51-10.44,11.67-10.44a13.75,13.75,0,0,1,7.16,1.87c1.74-.39,3.54-1.87,5-4.25l2.71,1.81a10.71,10.71,0,0,1-5.42,4.58A10,10,0,0,1,216.9,214c0,6.71-4.71,10.7-11.67,10.64A15.38,15.38,0,0,1,201,224c-1.94.78-3.42,2.26-3.42,4.45s1.16,3.61,6.06,3.61Zm9.67,8.77c0-4.06-3.48-5.8-9.67-5.8h-3.87c-4.38,0-8.38,1.74-8.38,6.32s4.38,6.19,11,6.19C211.88,247.55,216.77,245.74,216.77,240.84ZM197,214c0,5.29,3.29,7.8,8.19,7.8s8.19-2.51,8.19-7.8c0-5-3.35-7.54-8.19-7.61S197,209,197,214Z" transform="translate(-82.91 -33.94)"/><path class="cls-1" d="M250.68,219.89c0,8.12-3.61,16.38-13.28,16.38s-13.28-8.25-13.28-16.38,3.61-16.38,13.28-16.38S250.68,211.76,250.68,219.89Zm-22.95,0c0,7.74,3.22,13.41,9.67,13.41s9.67-5.67,9.67-13.41-3.23-13.41-9.67-13.41S227.73,212.15,227.73,219.89Z" transform="translate(-82.91 -33.94)"/><path class="cls-1" d="M279.18,206.15l-1.42,2.65a13.39,13.39,0,0,0-7.16-2.13c-8.06,0-10.06,6.38-10.06,13.15s2,13.35,10.06,13.35a10.79,10.79,0,0,0,7.61-3l1.42,2.65a12.71,12.71,0,0,1-9.09,3.42c-9.48,0-13.48-7.09-13.48-16.38s4-16.31,13.48-16.31A14.3,14.3,0,0,1,279.18,206.15Z" transform="translate(-82.91 -33.94)"/><path class="cls-1" d="M287.76,235.68V207.44l-3.54-.51v-2.84h7.15v31.59Zm-1.55-40.56a3,3,0,1,1,3,2.84A2.74,2.74,0,0,1,286.21,195.13Z" transform="translate(-82.91 -33.94)"/><path class="cls-1" d="M326,219.89c0,8.12-3.61,16.38-13.28,16.38s-13.28-8.25-13.28-16.38,3.61-16.38,13.28-16.38S326,211.76,326,219.89Zm-23,0c0,7.74,3.22,13.41,9.67,13.41s9.67-5.67,9.67-13.41-3.22-13.41-9.67-13.41S303,212.15,303,219.89Z" transform="translate(-82.91 -33.94)"/><path class="cls-1" d="M353.07,206.86l-1.61,2.51a12.07,12.07,0,0,0-7.93-2.77c-6,0-7.87,2.45-7.87,5.16,0,3.87,2.45,5.22,8.25,6.64,6.58,1.68,10.05,4.26,10.05,8.9,0,5.09-3,9-11.15,9-7.54,0-10.76-3.61-10.76-3.61l1.49-2.65a14,14,0,0,0,9.34,3.16c5.68,0,7.87-2.13,7.87-5.74,0-2.77-1.87-4.77-9.35-6.64-6.9-1.74-8.9-4.12-8.9-8.89,0-4.38,3.55-8.38,11.09-8.38C350.1,203.51,353.07,206.86,353.07,206.86Z" transform="translate(-82.91 -33.94)"/></svg>