<svg id="Capa_1" data-name="Capa 1" xmlns="http://www.w3.org/2000/svg" viewBox="0 0 711.64 76.55"><defs><style>.cls-1{fill:#436caf;}</style></defs><title>LOGO BCCH</title><path class="cls-1" d="M589.25,64.6h1.85c.27,0,12.21-7,16-9.91-1.42-.23-3.75,1-4.63,1h-3.25a7.19,7.19,0,0,0-2-1c-.73-.7-4.23-6.84-9.74-6.84h-2.06c-.1,0-4.59,1.34-12.93,7.21-5,3.56-10.83,5.66-10.83,9.31v36.76a11.63,11.63,0,0,0-1.63,2.16c.71.14,2.83-1.21,9.48-5.28s7.82-5.9,7.82-7.22V55.51a1.54,1.54,0,0,1,1.18-1.26c1.61,0,3.23,3.37,3.23,4v51.21c-1.33-.7,2.41,1.05-7,.6-6.37-.19-13.28-3.66-15.41-4.82-7-3.77-13.11-14.16-13.64-21.19-.81-12.16,4.21-16.52,11.55-24.26,4.82-5.08,17.21-10.59,18-12.3h-1c-.19.14-2.75,1.26-2.75,1.26-.41,0-3.73-.16-6.46,0-18.68,1.1-34.53,18.1-33,38.74s15.82,34.14,35.94,34c11.54,0,19.62-3.77,26.82-11.4,0,0,3.34-5.83,3.43-5.86V102.7h-.71c-.4.58-8.77,6.11-11.07,6.11-.39,0-.27.12-.92,0V62.69c1.52.71,2.84,1.91,3.71,1.91" transform="translate(-40.18 -45.17)"/><path class="cls-1" d="M364.28,64.6h1.79a166.21,166.21,0,0,0,16-9.91c-1.41-.23-3.74,1-4.63,1h-3.24a8.43,8.43,0,0,0-2.06-1c-.71-.66-4.17-6.8-9.73-6.8h-2.07c-.07,0-4.55,1.34-12.92,7.21-5,3.56-10.83,5.66-10.83,9.31v36.76a10,10,0,0,0-1.58,2.16c.7.14,2.79-1.21,9.42-5.28s7.87-5.9,7.87-7.22V55.51a1.5,1.5,0,0,1,1.18-1.26c1.61,0,3.21,3.37,3.21,4v51.21c-1.33-.7,2.39,1.05-7,.6-6.36-.19-13.29-3.66-15.39-4.82-7.06-3.77-13.16-14.16-13.68-21.19-.76-12.16,4.25-16.52,11.62-24.26,4.79-5.08,17.2-10.59,18-12.3h-1c-.21.14-2.77,1.26-2.77,1.26-.42,0-3.76-.16-6.45,0-18.68,1.1-34.51,18.1-33,38.74s15.8,34.14,36,34c11.49,0,19.6-3.77,26.77-11.4l3.45-5.86V102.7h-.66c-.4.58-8.79,6.11-11.1,6.11a2.28,2.28,0,0,1-.93,0V62.69c1.5.71,2.86,1.91,3.73,1.91" transform="translate(-40.18 -45.17)"/><path class="cls-1" d="M64.26,45.17h4.29c3,0,13.49,2.72,13.49,2.72h1.76A4.74,4.74,0,0,0,86,47.06a2.32,2.32,0,0,1,.91.42L69.17,59s-5.39,2.48-5.39,4.79v29L46.23,104c.27-1.52,2.51-2.88,2.51-5.16V70.13c0-2.2,16.84-10.23,16.84-12.51s-9.88-4.13-9.88-4.13a67.61,67.61,0,0,0-7.66,0c-3.13.07-6.62,1.87-7.86,1.81C44,53,54.11,45.17,64.26,45.17" transform="translate(-40.18 -45.17)"/><path class="cls-1" d="M100.19,45.83c2.68,0,4.33,2.67,9,8.28,1.16,1.39,6.52,7.37,6.52,10.3v2.27c0,5.84-16.88,11.75-16.88,14.24,0,1.62,8.86.86,12.83,3.27,3.8,2.28,5.36,7.18,5.36,9.88v7c0,4.23-6.27,5.77-13.91,11.14-3.39,2.37-14.9,9.5-15.76,9.5,0,0-13.16-6.63-19.57-6.63H59.29c-3.6,0-12.37,2.88-13.07,2.88,0,0,13.26-12,26.78-12h9c1.8,0,8.18,2.4,9.83,3V56.57a1.76,1.76,0,0,0-1.76-1.45c-2.56,0-4.29,4.15-4.29,4.33V90.57c0,1.42-5.88,5.59-9,7.25-4.68,2.45-7.72,4.85-10.55,6.15v-.58s2.44-2.5,2.44-4V65.63c0-.44,4-5,14.84-10.72,6.35-3.34,12.77-9.08,16.64-9.08M95,84.39v25.36C95,111,97.45,112,98.84,112c.71,0-.27.47.89,0V88.29c0-1.55-4-3.75-4.69-3.9M95,60v18.6c4.45-2.45,7.2-3.73,7.2-7C102.24,67.27,95,60,95,60" transform="translate(-40.18 -45.17)"/><path class="cls-1" d="M149.08,98.66c-10,0-14.09,2-14.09,7.39a6.32,6.32,0,0,0,6.47,6.36c2.69,0,5.19-1.21,7.63-3.62Zm0-10.53c0-5.25-1.61-6.91-6.64-6.91A35.28,35.28,0,0,0,131.2,83.6a3.26,3.26,0,0,1-1.15.29c-.5,0-.83-.29-1-.92l-2.14-5.54a4.13,4.13,0,0,1-.18-1c0-1.92,9.17-4.26,17.2-4.26s13.4,2.42,15.69,7.13c1,2,1.41,4.17,1.41,7.66v18.85a18.8,18.8,0,0,0,2.35,9.95,2.28,2.28,0,0,1,.27,1,1.07,1.07,0,0,1-.8.94L155,120.54a2.73,2.73,0,0,1-1.2.24c-.92,0-1.94-1.75-3-5.43-4,3.79-7.63,5.28-12.88,5.28-9.29,0-15.11-5.45-15.11-13.95,0-8.21,4.83-13.1,15-14.83,2.61-.57,5.69-.79,11.27-.83Z" transform="translate(-40.18 -45.17)"/><path class="cls-1" d="M180,71.88a7.44,7.44,0,0,1,1-.18c1.18,0,2.49,2.33,3.62,6.38,5-4.26,9.35-5.94,15-5.94,9,0,13,4.54,13,14.59v31c0,1.38-.22,1.56-1.73,1.56h-9.32c-1.52,0-1.71-.18-1.71-1.56V89.32c0-5.43-1.71-7.74-5.75-7.74-2.9,0-5.23,1-8.77,3.79v32.39c0,1.38-.19,1.56-1.7,1.56h-9.36c-1.52,0-1.71-.18-1.71-1.56v-31a21.87,21.87,0,0,0-2.11-10,1.69,1.69,0,0,1-.3-.89c0-.33.3-.66.81-.84Z" transform="translate(-40.18 -45.17)"/><path class="cls-1" d="M255.63,114.81c.31.74.31.74.31,1.11,0,2.28-7.78,5-14.58,5-13.67,0-21.65-8.61-21.65-23.44,0-15.71,8.85-25.32,23.23-25.32,6.16,0,14.3,3,14.3,5.29a2,2,0,0,1-.31,1l-3.5,5.91a1.23,1.23,0,0,1-.91.66,1.56,1.56,0,0,1-1-.37c-3.8-2.51-5.58-3.15-8.61-3.15-6.85,0-10,4.79-10,15.52,0,10,3.13,14.59,10.06,14.59a15.67,15.67,0,0,0,8.27-2.56,2.1,2.1,0,0,1,1.12-.5,1.07,1.07,0,0,1,.8.66Z" transform="translate(-40.18 -45.17)"/><path class="cls-1" d="M271.43,96.51c0,10.73,2.42,15.07,8.25,15.07S288,107.14,288,96.63c0-10.92-2.42-15.16-8.45-15.16-5.71,0-8.13,4.42-8.13,15m30.16-.07c0,15-8.36,24.46-21.78,24.46-13.79,0-22-9-22-24.39,0-7.56,2-13.26,5.86-17.59,4.36-4.75,9.26-6.77,16.5-6.77,13.13,0,21.42,9.33,21.42,24.3" transform="translate(-40.18 -45.17)"/><path class="cls-1" d="M386.13,72.44a2.47,2.47,0,0,1,1.23-.3c1.18,0,2.7,2.8,3.83,7.25,2.08-2.21,2.39-2.71,3.42-3.6a13.3,13.3,0,0,1,9.12-3.65c3,0,5.74,1,5.74,2a3.37,3.37,0,0,1-.19,1l-3.15,7.49c-.19.57-.48.82-.79.82a2.47,2.47,0,0,1-.7-.18,13.72,13.72,0,0,0-4-.72C398.53,82.59,396,84,393,87v30.72c0,1.38-.21,1.56-1.7,1.56h-9.38c-1.49,0-1.67-.18-1.67-1.56V89.71c0-5.28-.62-7.87-3-12.84A2.13,2.13,0,0,1,377,76c0-.36.39-.74,1-.92Z" transform="translate(-40.18 -45.17)"/><path class="cls-1" d="M436.33,91.06c-.22-7.63-2.25-10.49-7.37-10.49s-7.43,2.93-8.32,10.49Zm-15.87,8.6c.19,7.95,3.72,11.65,11.18,11.65a27.12,27.12,0,0,0,11.47-2.86,2.46,2.46,0,0,1,1.29-.41c.49,0,.79.3,1.09.87l2.55,5.53a1.78,1.78,0,0,1,.27,1c0,1-.77,1.56-4.12,2.83a36.77,36.77,0,0,1-13.89,2.61c-6.41,0-11.47-1.49-15-4.52-4.87-4-7.57-11.08-7.57-19.48,0-14.87,8.77-24.77,22-24.77s19.92,8.43,19.92,25.2c0,1.87-.39,2.32-2.19,2.32Z" transform="translate(-40.18 -45.17)"/><path class="cls-1" d="M482,83.14a17.26,17.26,0,0,0-7.25-1.67c-6.35,0-8.69,4.09-8.69,15.24,0,10.71,2.34,15.14,7.88,15.14a11.34,11.34,0,0,0,8.06-3.25Zm5.52,37.22a2.57,2.57,0,0,1-1,.27c-1,0-2.11-1.94-2.73-4.7a23.56,23.56,0,0,1-14.06,5c-10.48,0-16.4-8.61-16.4-23.56,0-9,1.79-15.12,5.92-19.62a16.85,16.85,0,0,1,12.78-5.58,20.15,20.15,0,0,1,10,2.62V56c0-1.18.05-1.38,1.49-1.67l9.33-1.78.94,0c.71,0,1,.44,1,1.56V108c0,3.88.22,4.61,1.84,7.95a3,3,0,0,1,.2.53c0,.38-.31.64-.91.86Z" transform="translate(-40.18 -45.17)"/><path class="cls-1" d="M501.23,82.34c-1.54,0-1.71-.23-1.71-1.59V75.3c0-1.41.17-1.58,1.71-1.58h18.7c1.51,0,1.73.17,1.73,1.58v42.46c0,1.38-.22,1.56-1.73,1.56h-9.36c-1.49,0-1.7-.18-1.7-1.56V82.34Z" transform="translate(-40.18 -45.17)"/><path class="cls-1" d="M623.09,77.52A20,20,0,0,1,637,72.14c4.82,0,9,1.9,11.08,5,1.52,2.26,2,4.78,2,9.48v31.11c0,1.38-.18,1.56-1.71,1.56H639c-1.53,0-1.7-.18-1.7-1.56V89.32c0-5.63-1.5-7.74-5.54-7.74-3,0-5.33,1-8.64,3.79v32.39c0,1.38-.22,1.56-1.71,1.56H612c-1.51,0-1.74-.18-1.74-1.56V56c0-1.28.14-1.38,1.56-1.67l9.34-1.78a6.49,6.49,0,0,1,.9,0c.69,0,1,.44,1,1.56Z" transform="translate(-40.18 -45.17)"/><path class="cls-1" d="M655.62,82.34c-1.56,0-1.73-.23-1.73-1.59V75.3c0-1.41.18-1.58,1.73-1.58H674.3c1.51,0,1.7.17,1.7,1.58v42.46c0,1.38-.19,1.56-1.7,1.56h-9.36c-1.52,0-1.7-.18-1.7-1.56V82.34Z" transform="translate(-40.18 -45.17)"/><path class="cls-1" d="M677.48,57.49l-6.37-5.87-.31-.29c-1.09-1-1.35-1-2.4,0l-6.65,6.1c-1.06,1-1.06,1.22,0,2.2l2.51,2.26,4.16,3.88c1.11,1,1.4,1,2.46,0l6.61-6.06c1.06-1,1.06-1.21,0-2.21" transform="translate(-40.18 -45.17)"/><path class="cls-1" d="M521.91,57.49l-6.37-5.87h0l-.31-.29c-1.1-1-1.37-1-2.43,0l-6.62,6.1c-1,1-1,1.22,0,2.2l2.52,2.26,4.19,3.88c1.07,1,1.3,1,2.4,0l6.62-6.06c1.06-1,1.06-1.21,0-2.21" transform="translate(-40.18 -45.17)"/><path class="cls-1" d="M697.87,52.71a5.61,5.61,0,0,1,1.2-.19c.68,0,1,.44,1,1.56v48.07c0,5.21,0,5.36.2,6.11a2.29,2.29,0,0,0,2.49,1.84,11,11,0,0,0,3.35-.55,2.26,2.26,0,0,1,.7-.1.74.74,0,0,1,.8.56l2,7.56.07.4a.71.71,0,0,1,.08.34c0,1.22-5.29,2.61-10.14,2.61-5.85,0-9.85-2.33-11.48-6.64-.79-2.14-.87-3.25-.87-11.25V56.13a1.61,1.61,0,0,1,1.5-1.79Z" transform="translate(-40.18 -45.17)"/><path class="cls-1" d="M738.43,91.28c-.19-7.68-2.2-10.53-7.33-10.53s-7.46,2.95-8.34,10.53Zm-15.88,8.57c.21,8,3.72,11.64,11.17,11.64a26.76,26.76,0,0,0,11.46-2.85,2.55,2.55,0,0,1,1.3-.36c.48,0,.8.28,1.13.8l2.5,5.55a1.68,1.68,0,0,1,.27,1c0,1-.76,1.58-4.11,2.86a36.9,36.9,0,0,1-13.87,2.56c-6.45,0-11.45-1.47-15-4.49-4.84-4-7.55-11.08-7.55-19.48,0-14.85,8.77-24.73,22.05-24.73s19.91,8.38,19.91,25.2c0,1.84-.4,2.28-2.19,2.28Z" transform="translate(-40.18 -45.17)"/></svg>