<?xml version="1.0" encoding="utf-8"?>
<!-- Generator: Adobe Illustrator 21.1.0, SVG Export Plug-In . SVG Version: 6.00 Build 0)  -->
<svg version="1.1" id="Capa_1" xmlns="http://www.w3.org/2000/svg" xmlns:xlink="http://www.w3.org/1999/xlink" x="0px" y="0px"
	 viewBox="0 0 436 138.6" style="enable-background:new 0 0 436 138.6;" xml:space="preserve">
<style type="text/css">
	.st0{clip-path:url(#SVGID_2_);fill:#4F936F;}
	.st1{clip-path:url(#SVGID_2_);fill:#A4A8AB;}
</style>
<g>
	<defs>
		<rect id="SVGID_1_" x="46.5" y="41.6" width="343" height="46.5"/>
	</defs>
	<clipPath id="SVGID_2_">
		<use xlink:href="#SVGID_1_"  style="overflow:visible;"/>
	</clipPath>
	<path class="st0" d="M172.9,66.3c-5.6,0-9.3-4.1-9.3-10.4c0-5.5,2.6-11.3,9.8-11.3c5.8,0,9.4,4,9.4,10.3
		C182.8,60.2,180.2,66.3,172.9,66.3 M173.4,41.6c-9.2,0-15.1,5.6-15.1,14.3c0,7.9,6,13.4,14.6,13.4c9.3,0,15.3-5.7,15.3-14.4
		C188.1,45.7,180.7,41.6,173.4,41.6 M143.9,41.6c-8.8,0-14.7,5.6-14.7,14c0,8.3,5.6,13.7,14.3,13.7c3.4,0,6.2-0.7,8.6-2.2l0.4-0.3
		v-3.7h-1.7l-0.3,0.3c-1.2,1.3-3.9,2.7-6.6,2.7c-6.9,0-9.3-5.6-9.3-10.5c0-6.5,3.7-10.8,9.3-10.8c2.7,0,4.5,0.8,6.5,2.7l0.3,0.2h1.5
		l0.2-0.6l0.8-2.8l0.2-0.7l-0.7-0.3C149.9,42.2,147,41.6,143.9,41.6 M79,55.6l2.8-6.5l2.9,6.5H79z M83.9,42.2l-0.2-0.5h-2l-0.2,0.5
		L69.8,67.6l-0.6,1.2h4.6l0.2-0.6l3.6-9.4H86l3.7,9.4l0.2,0.6h5.8l-0.5-1.2L83.9,42.2z M57.5,65.8h-5.9v-9.7h5.5
		c2.8,0,5.6,1.4,5.6,4.6C62.6,64.7,59.3,65.8,57.5,65.8 M51.6,45.3h5.6c4.2,0,4.7,1.9,4.7,3.6c0,2.5-2.5,4-4.8,4h-5.5V45.3z
		 M63.1,54.2c2.5-1.4,3.8-3.4,3.8-5.9c0-2.8-1.4-6.1-8.2-6.1H46.5v26.7h11c6.3,0,10.4-3.3,10.4-8.5C67.8,57.3,66.2,55.2,63.1,54.2
		 M119.9,60.1l-17.2-17.7l-0.3-0.3h-2.2v26.7h3.9v-18l17.2,17.7l0.3,0.3h2.2V42.1h-3.9V60.1z"/>
	<path class="st0" d="M194.6,68.8h19.2v-3.4h-14.1v-9.1h13v-3.4h-13v-7.3h14.1v-3.4h-19.2V68.8z M322.5,53.3v-8.1h4.2
		c1.5,0,4,0.5,4,3.5c0,3.2-3.1,4.6-6,4.6H322.5z M327.8,55.9c5.1-1,8-3.5,8-7.2c0-3-1.6-6.6-9-6.6h-9.4v26.7h5.1V57.3l9,11.2
		l0.3,0.3h6.6l-1.1-1.4L327.8,55.9z M229.8,65.7h-4.6V45.2h5.6c6.1,0,9.2,3.2,9.2,9.6C239.9,61.6,236.1,65.7,229.8,65.7 M232.5,42.1
		h-12.5v26.7h10.7c8.5,0,14.5-5.8,14.5-14C245.2,46.5,240.8,42.1,232.5,42.1 M382.8,52.9c0,0-0.5-0.2-0.5-0.2
		c-2.9-1.1-4.6-1.9-4.6-4.2c0-2,1.7-3.5,3.9-3.5c1.9,0,3.1,0.9,3.7,2.6l0.2,0.6h1.6l0.2-0.6l1-3l0.2-0.5l-0.4-0.4
		c-1.6-1.4-3.6-2-6.1-2c-5.4,0-8.9,3.1-8.9,7.8c0,4.9,4,6.4,7.2,7.7l0.6,0.2c2.7,1.1,3.8,2.3,3.8,4.1c0,2.6-2,4.5-4.7,4.5
		c-2.7,0-4.1-1.9-4.9-3.4l-0.2-0.5h-1.5l-0.2,0.7l-0.8,3.3l-0.1,0.6l0.5,0.3c1.9,1.2,4,2.3,6.6,2.3c6.1,0,10.1-3.4,10.1-8.6
		C389.5,55.5,385,53.7,382.8,52.9 M296.2,55.6l2.8-6.5l2.9,6.5H296.2z M301.1,42.1l-0.2-0.5h-2l-0.2,0.5L287,67.6l-0.6,1.2h4.6
		l0.2-0.6l3.6-9.3h8.2l3.7,9.4l0.2,0.5h5.8l-0.5-1.2L301.1,42.1z M287.3,42.1H283l-0.2,0.6l-6,19l-6.1-19l-0.2-0.6h-3.9l-0.2,0.6
		l-6.5,19l-6-18.9l-0.2-0.6h-5.1l0.3,1.1l7.8,25l0.2,0.6h3.9l0.2-0.6l6.5-18.6l6,18.6l0.2,0.6h4.1l0.2-0.6l8.8-25L287.3,42.1z
		 M352.3,65.7h-4.6V45.2h5.6c6.1,0,9.2,3.2,9.2,9.6C362.4,61.6,358.6,65.7,352.3,65.7 M355,42.1h-12.5v26.7h10.7
		c8.5,0,14.5-5.8,14.5-14C367.7,46.5,363.3,42.1,355,42.1"/>
	<path class="st1" d="M185.9,82.6c-0.4-0.4-1-0.5-1.5-0.5s-1.1,0.2-1.5,0.5c-0.5,0.4-0.7,0.8-0.8,1.4h4.7
		C186.6,83.4,186.3,83,185.9,82.6 M187.9,85.1H182c0.1,0.5,0.4,1,0.8,1.4c0.5,0.4,1,0.5,1.5,0.5c0.8,0,1.4-0.3,1.9-0.9l0.9,0.6
		c-0.3,0.4-0.7,0.8-1.2,1c-0.5,0.2-1,0.4-1.6,0.4c-1,0-1.8-0.3-2.5-1.1c-0.7-0.7-1-1.5-1-2.5c0-1,0.3-1.8,1-2.5c0.7-0.7,1.5-1,2.5-1
		c1,0,1.8,0.3,2.5,1c0.7,0.7,1,1.5,1,2.5C187.9,84.7,187.9,84.9,187.9,85.1 M177.2,79h1.1v8.9h-1.1V79z M173.3,81.2h1.1v6.7h-1.1
		V81.2z M174.4,80.1c-0.2,0.1-0.3,0.2-0.6,0.2c-0.2,0-0.4-0.1-0.6-0.2c-0.1-0.1-0.2-0.3-0.2-0.6s0.1-0.4,0.2-0.6
		c0.1-0.1,0.3-0.2,0.6-0.2c0.2,0,0.4,0.1,0.6,0.2c0.2,0.1,0.2,0.3,0.2,0.6S174.6,79.9,174.4,80.1 M169.5,87.8v-4
		c0-0.5-0.2-0.9-0.5-1.3c-0.3-0.3-0.8-0.5-1.3-0.5c-0.5,0-0.9,0.2-1.3,0.5c-0.3,0.3-0.5,0.8-0.5,1.3v4h-1.1V79h1.1v3
		c0.5-0.7,1.2-1,2-1c0.8,0,1.4,0.3,1.9,0.9c0.5,0.6,0.7,1.2,0.7,2v4H169.5z M158.9,88.1c-1.3,0-2.4-0.5-3.3-1.4
		c-0.9-0.9-1.4-2-1.4-3.3c0-1.3,0.5-2.4,1.4-3.3c0.9-0.9,2-1.4,3.3-1.4c1.3,0,2.4,0.5,3.3,1.4l-0.8,0.8c-0.7-0.7-1.5-1-2.5-1
		c-1,0-1.8,0.3-2.5,1c-0.7,0.7-1.1,1.5-1.1,2.5c0,1,0.4,1.8,1.1,2.5c0.7,0.7,1.5,1,2.5,1c1,0,1.8-0.3,2.5-1l0.8,0.8
		C161.3,87.6,160.2,88.1,158.9,88.1 M143.3,82.6c-0.4-0.4-1-0.5-1.5-0.5c-0.6,0-1.1,0.2-1.5,0.5c-0.5,0.4-0.7,0.8-0.9,1.4h4.7
		C144,83.4,143.8,83,143.3,82.6 M145.3,85.1h-5.9c0.1,0.5,0.4,1,0.9,1.4c0.5,0.4,1,0.5,1.5,0.5c0.8,0,1.4-0.3,1.9-0.9l0.9,0.6
		c-0.3,0.4-0.7,0.8-1.2,1c-0.5,0.2-1,0.4-1.6,0.4c-1,0-1.8-0.3-2.5-1.1c-0.7-0.7-1-1.5-1-2.5c0-1,0.3-1.8,1-2.5c0.7-0.7,1.5-1,2.5-1
		c1,0,1.8,0.3,2.5,1c0.7,0.7,1,1.5,1,2.5C145.3,84.7,145.3,84.9,145.3,85.1 M133.9,82.8c-0.5-0.5-1-0.7-1.7-0.7
		c-0.7,0-1.3,0.2-1.7,0.7c-0.2,0.2-0.4,0.5-0.5,0.8c-0.1,0.3-0.2,0.6-0.2,0.9c0,0.7,0.2,1.2,0.7,1.7c0.5,0.5,1.1,0.7,1.7,0.7
		c0.7,0,1.2-0.2,1.7-0.7c0.5-0.5,0.7-1.1,0.7-1.7C134.6,83.9,134.4,83.3,133.9,82.8 M134.6,87.8v-1.2c-0.7,0.9-1.6,1.4-2.7,1.4
		c-0.9,0-1.7-0.4-2.4-1.1c-0.6-0.7-0.9-1.5-0.9-2.5c0-1,0.3-1.8,1-2.5c0.6-0.7,1.4-1.1,2.4-1.1c1.1,0,2,0.5,2.7,1.4V79h1.1v8.9
		H134.6z M117.9,82.8c-0.5-0.5-1-0.7-1.7-0.7c-0.7,0-1.3,0.2-1.7,0.7c-0.2,0.2-0.4,0.5-0.5,0.8c-0.1,0.3-0.2,0.6-0.2,0.9
		c0,0.7,0.2,1.2,0.7,1.7c0.5,0.5,1.1,0.7,1.7,0.7c0.7,0,1.2-0.2,1.7-0.7c0.5-0.5,0.7-1.1,0.7-1.7C118.6,83.9,118.4,83.3,117.9,82.8
		 M118.7,87c-0.7,0.7-1.6,1.1-2.5,1.1c-1,0-1.8-0.3-2.5-1.1c-0.7-0.7-1-1.5-1-2.5c0-1,0.3-1.8,1-2.5c0.7-0.7,1.5-1,2.5-1
		c1,0,1.8,0.3,2.5,1c0.7,0.7,1,1.5,1,2.5C119.7,85.5,119.4,86.3,118.7,87 M109,87.7c-0.5,0.2-1,0.4-1.6,0.4c-1,0-1.8-0.3-2.5-1.1
		c-0.7-0.7-1-1.5-1-2.5c0-1,0.3-1.8,1-2.5c0.7-0.7,1.5-1,2.5-1c0.5,0,1.1,0.1,1.6,0.4c0.5,0.2,0.9,0.6,1.2,1l-0.9,0.6
		c-0.5-0.6-1.1-0.9-1.9-0.9c-0.7,0-1.3,0.2-1.7,0.7c-0.2,0.2-0.4,0.5-0.5,0.8c-0.1,0.3-0.2,0.6-0.2,0.9c0,0.7,0.2,1.2,0.7,1.7
		c0.5,0.5,1.1,0.7,1.7,0.7c0.7,0,1.4-0.3,1.9-0.9l0.9,0.6C109.9,87.1,109.5,87.5,109,87.7 M100.3,87.8v-4c0-0.5-0.2-0.9-0.5-1.3
		c-0.3-0.3-0.8-0.5-1.3-0.5c-0.5,0-0.9,0.2-1.3,0.5c-0.3,0.3-0.5,0.8-0.5,1.3v4h-1.1v-6.7h1.1v0.8c0.5-0.7,1.2-1,2-1
		c0.8,0,1.4,0.3,1.9,0.9c0.5,0.6,0.7,1.2,0.7,2v4H100.3z M91.1,82.8c-0.5-0.5-1-0.7-1.7-0.7c-0.7,0-1.3,0.2-1.7,0.7
		c-0.2,0.2-0.4,0.5-0.5,0.8c-0.1,0.3-0.2,0.6-0.2,0.9c0,0.7,0.2,1.2,0.7,1.7c0.5,0.5,1.1,0.7,1.7,0.7c0.7,0,1.2-0.2,1.7-0.7
		c0.5-0.5,0.7-1.1,0.7-1.7C91.8,83.9,91.5,83.3,91.1,82.8 M91.8,87.8v-1.2c-0.7,0.9-1.6,1.4-2.7,1.4c-0.9,0-1.7-0.4-2.4-1.1
		c-0.6-0.7-0.9-1.5-0.9-2.5c0-1,0.3-1.8,1-2.5c0.6-0.7,1.4-1.1,2.4-1.1c1.1,0,2,0.5,2.7,1.4v-1.2h1.1v6.7H91.8z M81.8,84.3
		c-0.3-0.2-0.7-0.4-1.1-0.4h-2.9v2.8h2.9c0.4,0,0.8-0.1,1.1-0.4c0.4-0.3,0.5-0.6,0.5-1C82.3,84.9,82.1,84.6,81.8,84.3 M81.5,80.4
		c-0.3-0.2-0.7-0.4-1.1-0.4h-2.7v2.8h2.7c0.4,0,0.8-0.1,1.1-0.4c0.4-0.3,0.5-0.6,0.5-1C82.1,81.1,81.9,80.7,81.5,80.4 M82.6,87.1
		c-0.6,0.5-1.2,0.7-1.9,0.7h-4V79h3.8c0.7,0,1.4,0.2,1.9,0.7c0.6,0.5,0.9,1.1,0.9,1.8c0,0.9-0.4,1.5-1.3,1.9c1,0.3,1.6,1,1.6,2
		C83.4,86.1,83.1,86.7,82.6,87.1 M66.1,79h1.1v8.9h-1.1V79z M61.5,82.6c-0.4-0.4-1-0.5-1.5-0.5c-0.6,0-1.1,0.2-1.5,0.5
		C58,83,57.7,83.4,57.6,84h4.7C62.2,83.4,62,83,61.5,82.6 M63.5,85.1h-5.9c0.1,0.5,0.4,1,0.8,1.4c0.5,0.4,1,0.5,1.5,0.5
		c0.8,0,1.4-0.3,1.9-0.9l0.9,0.6c-0.3,0.4-0.7,0.8-1.2,1s-1,0.4-1.6,0.4c-1,0-1.8-0.3-2.5-1.1c-0.7-0.7-1-1.5-1-2.5
		c0-1,0.3-1.8,1-2.5c0.7-0.7,1.5-1,2.5-1c1,0,1.8,0.3,2.5,1c0.7,0.7,1,1.5,1,2.5C63.6,84.7,63.5,84.9,63.5,85.1 M52.1,82.8
		c-0.5-0.5-1-0.7-1.7-0.7c-0.7,0-1.3,0.2-1.7,0.7c-0.2,0.2-0.4,0.5-0.5,0.8c-0.1,0.3-0.2,0.6-0.2,0.9c0,0.7,0.2,1.2,0.7,1.7
		c0.5,0.5,1.1,0.7,1.7,0.7c0.7,0,1.2-0.2,1.7-0.7c0.5-0.5,0.7-1.1,0.7-1.7C52.8,83.9,52.6,83.3,52.1,82.8 M52.8,87.8v-1.2
		c-0.7,0.9-1.6,1.4-2.7,1.4c-0.9,0-1.7-0.4-2.4-1.1c-0.6-0.7-0.9-1.5-0.9-2.5c0-1,0.3-1.8,1-2.5c0.6-0.7,1.4-1.1,2.4-1.1
		c1.1,0,2,0.5,2.7,1.4V79h1.1v8.9H52.8z"/>
</g>
</svg>
